<svg xmlns="http://www.w3.org/2000/svg" xmlns:xlink="http://www.w3.org/1999/xlink" width="32" height="64" viewBox="0 0 32 64">
  <defs>
    <clipPath id="clip-wpbr-icon">
      <rect width="32" height="64"/>
    </clipPath>
  </defs>
  <g id="wpbr-icon" clip-path="url(#clip-wpbr-icon)">
    <rect width="32" height="64" fill="#fff"/>
    <g id="Groupe_1" data-name="Groupe 1" transform="translate(3.478 4.228)">
      <g id="Rectangle_1" data-name="Rectangle 1" transform="translate(1.522 1.772)" fill="none" stroke="#555" stroke-width="2">
        <rect width="22" height="8" stroke="none"/>
        <rect x="1" y="1" width="20" height="6" fill="none"/>
      </g>
      <line id="Ligne_1" data-name="Ligne 1" x2="12" transform="translate(1.522 12.772)" fill="none" stroke="#555" stroke-width="2"/>
      <line id="Ligne_3" data-name="Ligne 3" x2="12" transform="translate(1.522 16.772)" fill="none" stroke="#555" stroke-width="2"/>
      <line id="Ligne_4" data-name="Ligne 4" x2="12" transform="translate(1.522 20.772)" fill="none" stroke="#555" stroke-width="2"/>
      <g id="Rectangle_2" data-name="Rectangle 2" transform="translate(15.522 11.772)" fill="none" stroke="#555" stroke-width="2">
        <rect width="8" height="10" stroke="none"/>
        <rect x="1" y="1" width="6" height="8" fill="none"/>
      </g>
    </g>
    <g id="Groupe_3" data-name="Groupe 3" transform="translate(3.478 36.228)">
      <g id="Rectangle_1-2" data-name="Rectangle 1" transform="translate(1.522 1.772)" fill="none" stroke="#007cba" stroke-width="2">
        <rect width="22" height="8" stroke="none"/>
        <rect x="1" y="1" width="20" height="6" fill="none"/>
      </g>
      <line id="Ligne_1-2" data-name="Ligne 1" x2="12" transform="translate(1.522 12.772)" fill="none" stroke="#007cba" stroke-width="2"/>
      <line id="Ligne_3-2" data-name="Ligne 3" x2="12" transform="translate(1.522 16.772)" fill="none" stroke="#007cba" stroke-width="2"/>
      <line id="Ligne_4-2" data-name="Ligne 4" x2="12" transform="translate(1.522 20.772)" fill="none" stroke="#007cba" stroke-width="2"/>
      <g id="Rectangle_2-2" data-name="Rectangle 2" transform="translate(15.522 11.772)" fill="none" stroke="#007cba" stroke-width="2">
        <rect width="8" height="10" stroke="none"/>
        <rect x="1" y="1" width="6" height="8" fill="none"/>
      </g>
    </g>
  </g>
</svg>
